<svg xmlns="http://www.w3.org/2000/svg" width="200" height="80" viewBox="0 0 200 80"><path fill="#ffffff" transform="translate(11,18)" d="M23.55 16.77L26.14 16.77L20.35 32.35L17.86 32.35L13.47 20.29L9.06 32.35L6.59 32.35L0.80 16.77L3.49 16.77L7.90 29.28L12.42 16.77L14.66 16.77L19.10 29.28L23.55 16.77ZM35.62 32.58Q33.41 32.58 31.73 31.58Q30.05 30.59 29.14 28.75Q28.22 26.91 28.22 24.48L28.22 24.48Q28.22 22.05 29.14 20.21Q30.05 18.37 31.73 17.38Q33.41 16.38 35.62 16.38L35.62 16.38Q37.82 16.38 39.52 17.38Q41.22 18.37 42.13 20.21Q43.04 22.05 43.04 24.48L43.04 24.48Q43.04 26.91 42.13 28.75Q41.22 30.59 39.52 31.58Q37.82 32.58 35.62 32.58L35.62 32.58ZM35.62 30.43Q37.92 30.43 39.15 28.91Q40.38 27.39 40.38 24.48L40.38 24.48Q40.38 21.63 39.14 20.08Q37.89 18.53 35.62 18.53L35.62 18.53Q33.34 18.53 32.10 20.08Q30.85 21.63 30.85 24.48L30.85 24.48Q30.85 27.36 32.08 28.90Q33.31 30.43 35.62 30.43L35.62 30.43ZM55.52 16.38L55.74 18.62L54.05 18.78Q51.65 19.01 50.58 20.29Q49.50 21.57 49.50 23.46L49.50 23.46L49.50 32.35L46.91 32.35L46.91 16.77L49.44 16.77L49.44 19.49Q50.75 16.77 54.59 16.45L54.59 16.45L55.52 16.38ZM72.10 32.35L68.74 32.35L60.80 24.90L60.80 32.35L58.21 32.35L58.21 9.79L60.80 9.79L60.80 23.84L68.06 16.80L71.36 16.80L63.62 24.26L72.10 32.35Z"></path><circle cx="21" cy="21" r="21" transform="translate(85,19)" fill="#276ef1"></circle><path fill="#ffffff" transform="translate(94,21)" d="M12.35 30.29Q8.97 30.29 6.45 28.91Q3.93 27.53 2.56 25.03Q1.20 22.52 1.20 19.27L1.20 19.27Q1.20 15.78 2.65 13.18Q4.11 10.58 6.66 9.19Q9.20 7.80 12.38 7.80L12.38 7.80Q15.73 7.80 18.12 9.13Q20.51 10.45 21.74 12.65Q22.96 14.85 22.96 17.37L22.96 17.37Q22.96 19.84 22.22 21.46Q21.48 23.09 20.28 23.86Q19.08 24.62 17.68 24.62L17.68 24.62Q16.30 24.62 15.50 24.02Q14.69 23.43 14.56 22.36L14.56 22.36L14.51 22.36Q13.10 24.62 10.63 24.62L10.63 24.62Q8.87 24.62 7.79 23.40Q6.71 22.18 6.71 20.05L6.71 20.05Q6.71 18.25 7.40 16.70Q8.09 15.16 9.33 14.23Q10.58 13.31 12.19 13.31L12.19 13.31Q13.39 13.31 14.27 13.86Q15.16 14.40 15.44 15.29L15.44 15.29L15.50 15.29L15.78 13.60L17.78 13.60L16.59 20.38Q16.48 21.16 16.48 21.37L16.48 21.37Q16.48 22.23 16.86 22.61Q17.24 22.98 18.04 22.98L18.04 22.98Q18.72 22.98 19.41 22.43Q20.10 21.87 20.57 20.61Q21.03 19.34 21.03 17.37L21.03 17.37Q21.03 15.29 20.06 13.52Q19.08 11.75 17.13 10.67Q15.18 9.59 12.38 9.59L12.38 9.59Q9.75 9.59 7.67 10.75Q5.59 11.91 4.41 14.11Q3.22 16.30 3.22 19.27L3.22 19.27Q3.22 22.05 4.32 24.13Q5.41 26.21 7.48 27.34Q9.54 28.47 12.35 28.47L12.35 28.47Q14.46 28.47 15.99 27.90Q17.52 27.33 18.33 26.29L18.33 26.29L20.98 26.29Q19.89 28.13 17.65 29.21Q15.42 30.29 12.35 30.29L12.35 30.29ZM11.08 22.98Q12.30 22.98 13.18 22.24Q14.07 21.50 14.52 20.31Q14.98 19.11 14.98 17.81L14.98 17.81Q14.98 16.43 14.31 15.70Q13.65 14.98 12.51 14.98L12.51 14.98Q11.34 14.98 10.48 15.70Q9.62 16.43 9.18 17.59Q8.74 18.75 8.74 19.99L8.74 19.99Q8.74 21.42 9.39 22.20Q10.04 22.98 11.08 22.98L11.08 22.98Z"></path><path fill="#ffffff" transform="translate(129,18)" d="M9.25 30.50Q9.95 30.50 10.66 30.40L10.66 30.40L10.53 32.45Q9.79 32.58 8.93 32.58L8.93 32.58Q6.11 32.58 4.69 31.10Q3.26 29.63 3.26 27.01L3.26 27.01L3.26 18.82L0.22 18.82L0.22 16.77L3.26 16.77L3.26 12.03L5.86 12.03L5.86 16.77L10.27 16.77L10.27 18.82L5.86 18.82L5.86 26.82Q5.86 30.50 9.25 30.50L9.25 30.50ZM26.34 24.00L26.34 24.96L14.94 24.96Q15.07 27.68 16.42 29.07Q17.76 30.46 20.22 30.46L20.22 30.46Q22.94 30.46 25.22 28.61L25.22 28.61L26.08 30.50Q25.06 31.46 23.46 32.02Q21.86 32.58 20.19 32.58L20.19 32.58Q16.54 32.58 14.45 30.43Q12.35 28.29 12.35 24.51L12.35 24.51Q12.35 22.11 13.28 20.27Q14.21 18.43 15.89 17.41Q17.57 16.38 19.71 16.38L19.71 16.38Q22.82 16.38 24.58 18.42Q26.34 20.45 26.34 24.00L26.34 24.00ZM19.74 18.40Q17.70 18.40 16.46 19.68Q15.23 20.96 15.01 23.30L15.01 23.30L24.06 23.30Q24 20.93 22.88 19.66Q21.76 18.40 19.74 18.40L19.74 18.40ZM36.74 32.58Q34.43 32.58 32.74 31.58Q31.04 30.59 30.13 28.78Q29.22 26.98 29.22 24.54L29.22 24.54Q29.22 22.11 30.16 20.27Q31.10 18.43 32.82 17.41Q34.53 16.38 36.83 16.38L36.83 16.38Q38.40 16.38 39.90 16.94Q41.41 17.50 42.34 18.43L42.34 18.43L41.47 20.35Q39.26 18.56 36.99 18.56L36.99 18.56Q34.59 18.56 33.25 20.13Q31.90 21.70 31.90 24.54L31.90 24.54Q31.90 27.36 33.25 28.90Q34.59 30.43 36.99 30.43L36.99 30.43Q39.26 30.43 41.47 28.64L41.47 28.64L42.34 30.56Q41.34 31.49 39.84 32.03Q38.34 32.58 36.74 32.58L36.74 32.58ZM53.31 16.38Q58.91 16.38 58.91 22.56L58.91 22.56L58.91 32.35L56.32 32.35L56.32 22.72Q56.32 20.54 55.47 19.55Q54.62 18.56 52.77 18.56L52.77 18.56Q50.62 18.56 49.34 19.87Q48.06 21.18 48.06 23.42L48.06 23.42L48.06 32.35L45.47 32.35L45.47 9.79L48.06 9.79L48.06 19.26Q48.83 17.86 50.19 17.12Q51.55 16.38 53.31 16.38L53.31 16.38Z"></path></svg>