<svg version="1.1" xmlns="http://www.w3.org/2000/svg" viewBox="-1197.2998710650609 -2568.168464402019 5190.130131295283 4216.003728848287"><desc>Created with Snap</desc><defs></defs><g><g transform="matrix(11.6505,0,0,11.6505,-974.5756,-2668.4268)">
<g id="gSku76su1ta0e">
	<path d="M196.02133,47.02528C162.0565,63.37874,34.04472,181.23653,17.95026,220.8622
		C-23.53873,323.01114,64.3831,338.37173,131.90678,342.95166c83.79094,5.68329,233.84074-6.40137,262.61847-108.008
		C427.85785,117.2548,302.42114-4.2047,196.02133,47.02528z" fill="#e8715b" style=""></path>
</g>


<desc>Created with Snap</desc><defs></defs></g><g><g transform="matrix(0.5,0,0,-0.5,0,0)"><path d="M1087 39Q1099 31 1092 15Q1085 -1 1066 -18Q1047 -34 1021 -46Q995 -58 969 -57Q944 -56 920 -42Q896 -28 877 1Q859 31 847 75Q836 119 836 180L836 1128Q836 1186 824 1218Q813 1250 797 1264Q782 1279 765 1281Q749 1284 739 1284Q728 1284 711 1281Q694 1278 678 1261Q663 1245 652 1209Q641 1174 641 1108L641 2Q644 2 647 -2Q651 -5 651 -8Q651 -16 639 -25Q628 -33 611 -41Q594 -48 572 -53Q551 -57 532 -57Q512 -57 496 -52Q481 -47 481 -18L481 1128Q481 1186 470 1218Q460 1250 445 1264Q430 1279 413 1281Q397 1284 385 1284Q375 1284 358 1281Q342 1279 326 1264Q310 1250 298 1218Q287 1186 287 1128L287 221Q287 85 242 14Q197 -57 111 -57Q82 -57 63 -47Q45 -37 34 -22Q23 -7 18 10Q14 27 14 41Q14 48 18 50Q23 52 31 52Q39 52 49 52Q59 53 70 57Q80 61 90 73Q101 85 109 108Q117 131 122 166Q127 201 127 252L127 1108Q127 1198 149 1260Q172 1322 208 1361Q244 1400 289 1417Q335 1434 381 1434Q394 1434 416 1431Q438 1429 464 1420Q491 1411 518 1394Q545 1378 569 1350Q588 1378 611 1394Q634 1411 656 1420Q679 1429 699 1431Q720 1434 735 1434Q783 1434 829 1417Q876 1400 912 1361Q949 1322 972 1260Q995 1198 995 1108L995 197Q995 165 1002 139Q1010 114 1022 94Q1035 75 1052 61Q1069 48 1087 39ZM1773 78Q1804 78 1826 100Q1849 122 1865 155Q1882 188 1892 226Q1903 265 1910 299Q1917 331 1930 345Q1944 360 1960 360Q1972 360 1984 352Q1997 345 2007 333Q2018 321 2024 306Q2031 291 2031 276Q2031 274 2031 271Q2031 268 2029 262Q2016 211 1993 155Q1971 99 1936 52Q1901 5 1851 -26Q1802 -57 1736 -57Q1682 -57 1642 -34Q1602 -11 1579 27Q1548 -8 1504 -33Q1461 -57 1403 -57Q1343 -57 1297 -33Q1252 -9 1221 32Q1190 74 1174 130Q1159 187 1159 252Q1159 380 1200 482Q1241 584 1309 655Q1377 727 1464 765Q1552 803 1646 803Q1688 803 1714 780Q1740 757 1740 717Q1740 691 1734 680Q1729 670 1714 670Q1700 670 1685 672Q1670 674 1654 674Q1596 674 1536 648Q1476 623 1427 570Q1379 518 1348 437Q1317 357 1317 246Q1317 165 1348 121Q1379 78 1433 78Q1475 78 1503 109Q1531 141 1548 184L1548 500Q1548 515 1546 525Q1545 535 1543 542Q1542 549 1541 554Q1540 560 1540 565Q1540 581 1555 590Q1571 600 1593 600Q1644 600 1674 573Q1704 547 1704 510L1704 172Q1704 155 1708 138Q1712 122 1720 108Q1728 95 1741 86Q1755 78 1773 78ZM2027 985Q2002 985 1979 995Q1957 1005 1940 1022Q1924 1039 1914 1061Q1904 1084 1904 1110Q1904 1137 1914 1160Q1924 1183 1940 1199Q1957 1216 1979 1225Q2002 1235 2027 1235Q2054 1235 2077 1225Q2100 1216 2116 1199Q2133 1183 2142 1160Q2152 1137 2152 1110Q2152 1084 2142 1061Q2133 1039 2116 1022Q2100 1005 2077 995Q2054 985 2027 985ZM2074 692L2074 172Q2074 165 2075 149Q2076 134 2081 118Q2086 102 2097 90Q2108 78 2128 78Q2158 78 2180 100Q2203 122 2219 155Q2236 188 2247 226Q2258 265 2265 299Q2271 330 2283 344Q2296 358 2310 359Q2325 361 2339 352Q2354 343 2365 328Q2377 314 2382 296Q2388 278 2384 262Q2370 211 2347 155Q2325 99 2290 52Q2255 5 2206 -26Q2157 -57 2091 -57Q2050 -57 2018 -42Q1986 -26 1964 0Q1942 26 1930 61Q1919 96 1919 135L1919 682Q1919 711 1914 724Q1910 737 1910 748Q1910 763 1926 772Q1942 782 1964 782Q2015 782 2044 755Q2074 729 2074 692ZM2428 1190L2428 606Q2439 627 2449 662Q2460 698 2469 741Q2479 784 2487 831Q2495 878 2501 923Q2507 968 2510 1007Q2514 1047 2514 1075Q2514 1177 2499 1224Q2484 1272 2459 1272Q2451 1272 2445 1264Q2439 1256 2435 1243Q2431 1231 2429 1216Q2428 1202 2428 1190ZM2719 297Q2725 327 2737 340Q2750 354 2764 355Q2779 357 2794 348Q2809 340 2820 326Q2831 312 2836 294Q2842 277 2838 260Q2824 219 2798 164Q2772 109 2732 60Q2692 11 2638 -23Q2584 -57 2514 -57Q2455 -57 2410 -38Q2365 -18 2334 17Q2304 53 2288 102Q2273 152 2273 213L2273 1145Q2273 1202 2287 1250Q2302 1299 2327 1333Q2353 1368 2387 1387Q2421 1407 2459 1407Q2504 1407 2535 1390Q2566 1374 2586 1347Q2606 1320 2617 1285Q2629 1250 2634 1213Q2639 1177 2640 1141Q2641 1106 2641 1077Q2641 1002 2627 919Q2613 837 2591 757Q2570 677 2544 603Q2519 530 2495 473Q2472 416 2453 380Q2435 344 2428 338L2428 219Q2428 157 2454 117Q2480 78 2537 78Q2572 78 2602 99Q2633 121 2656 153Q2680 186 2696 224Q2712 263 2719 297ZM3066 -74Q3001 -74 2958 -60Q2915 -45 2890 -27Q2865 -9 2855 7Q2845 24 2845 29Q2845 47 2853 67Q2861 88 2873 105Q2885 123 2899 135Q2913 147 2924 147Q2938 147 2947 129Q2949 127 2957 119Q2965 111 2979 102Q2994 94 3015 87Q3037 80 3066 80Q3129 80 3169 118Q3209 157 3209 223Q3209 269 3187 305Q3166 341 3131 372Q3096 403 3051 432Q3006 462 2959 494Q2912 526 2867 563Q2822 600 2787 648Q2752 696 2730 756Q2709 817 2709 895Q2709 962 2732 1030Q2755 1098 2795 1159Q2836 1221 2891 1274Q2946 1328 3010 1367Q3074 1407 3143 1429Q3213 1452 3283 1452Q3343 1452 3391 1433Q3439 1414 3472 1379Q3505 1345 3523 1296Q3541 1248 3541 1188Q3541 1131 3521 1076Q3501 1021 3468 972Q3435 923 3393 881Q3352 840 3308 809Q3265 779 3224 762Q3183 745 3152 745Q3125 745 3103 757Q3082 770 3067 788Q3053 807 3045 827Q3037 848 3037 864Q3037 877 3040 881Q3044 885 3050 884Q3057 884 3067 881Q3077 879 3090 879Q3132 879 3183 908Q3234 937 3279 982Q3324 1027 3354 1081Q3385 1135 3385 1186Q3385 1238 3359 1268Q3334 1298 3273 1298Q3235 1298 3190 1283Q3146 1269 3101 1243Q3056 1217 3014 1180Q2972 1143 2940 1098Q2908 1054 2888 1002Q2869 951 2869 895Q2869 836 2890 789Q2912 743 2947 705Q2983 667 3028 635Q3073 603 3120 571Q3167 540 3212 506Q3257 473 3292 432Q3328 392 3349 342Q3371 293 3371 229Q3371 167 3347 111Q3324 56 3283 15Q3242 -26 3186 -50Q3130 -74 3066 -74ZM3899 -57Q3831 -57 3767 -32Q3703 -7 3653 42Q3604 91 3574 163Q3545 235 3545 330Q3545 418 3570 503Q3595 588 3639 654Q3683 721 3744 762Q3806 803 3879 803Q3932 803 3969 781Q4006 760 4029 729Q4052 699 4062 664Q4073 629 4073 602Q4073 582 4062 566Q4052 550 4037 539Q4022 528 4004 522Q3986 517 3972 518Q3958 519 3949 528Q3941 537 3944 555Q3940 568 3936 587Q3933 606 3924 623Q3916 641 3901 653Q3886 666 3860 666Q3832 666 3805 639Q3779 613 3758 567Q3738 521 3725 460Q3713 399 3713 330Q3713 269 3728 222Q3744 175 3772 143Q3800 111 3838 94Q3877 78 3922 78Q3982 78 4026 100Q4071 123 4102 160Q4133 197 4152 243Q4171 289 4180 336Q4187 370 4208 381Q4230 393 4252 387Q4275 381 4291 361Q4308 342 4305 315Q4301 284 4290 244Q4280 204 4260 163Q4240 122 4209 82Q4179 43 4135 12Q4091 -19 4032 -38Q3974 -57 3899 -57ZM4759 78Q4790 78 4812 100Q4835 122 4851 155Q4868 188 4878 226Q4889 265 4896 299Q4903 331 4916 345Q4930 360 4946 360Q4958 360 4970 352Q4983 345 4993 333Q5004 321 5010 306Q5017 291 5017 276Q5017 274 5017 271Q5017 268 5015 262Q5002 211 4979 155Q4957 99 4922 52Q4887 5 4837 -26Q4788 -57 4722 -57Q4668 -57 4628 -34Q4588 -11 4565 27Q4534 -8 4490 -33Q4447 -57 4389 -57Q4329 -57 4283 -33Q4238 -9 4207 32Q4176 74 4160 130Q4145 187 4145 252Q4145 380 4186 482Q4227 584 4295 655Q4363 727 4450 765Q4538 803 4632 803Q4674 803 4700 780Q4726 757 4726 717Q4726 691 4720 680Q4715 670 4700 670Q4686 670 4671 672Q4656 674 4640 674Q4582 674 4522 648Q4462 623 4413 570Q4365 518 4334 437Q4303 357 4303 246Q4303 165 4334 121Q4365 78 4419 78Q4461 78 4489 109Q4517 141 4534 184L4534 500Q4534 515 4532 525Q4531 535 4529 542Q4528 549 4527 554Q4526 560 4526 565Q4526 581 4541 590Q4557 600 4579 600Q4630 600 4660 573Q4690 547 4690 510L4690 172Q4690 155 4694 138Q4698 122 4706 108Q4714 95 4727 86Q4741 78 4759 78ZM5159 -78Q5121 -78 5097 -70Q5073 -61 5060 -47L5060 -713Q5060 -741 5049 -759Q5038 -776 5021 -786Q5005 -796 4986 -800Q4967 -803 4952 -803Q4921 -803 4913 -787Q4905 -771 4905 -748L4905 682Q4905 704 4901 717Q4898 730 4894 737Q4891 745 4887 749Q4884 754 4884 760Q4884 765 4890 769Q4896 773 4906 776Q4916 779 4927 780Q4939 782 4950 782Q4999 782 5028 755Q5058 729 5060 694Q5092 741 5137 772Q5182 803 5247 803Q5307 803 5351 775Q5396 747 5425 698Q5455 650 5469 584Q5484 518 5484 442Q5484 356 5469 277Q5454 199 5431 143Q5482 146 5515 157Q5548 168 5570 187Q5593 207 5609 235Q5626 263 5644 299Q5658 328 5667 341Q5677 354 5691 354Q5704 354 5717 346Q5731 338 5741 326Q5752 314 5758 300Q5765 287 5765 276Q5765 241 5741 196Q5717 151 5667 111Q5618 71 5542 43Q5467 16 5365 16Q5323 -29 5268 -54Q5213 -78 5159 -78ZM5195 666Q5173 666 5152 653Q5132 640 5114 617Q5096 595 5082 563Q5069 531 5060 494L5060 51Q5082 83 5132 100Q5182 117 5253 123Q5271 150 5284 187Q5298 225 5307 265Q5316 305 5320 343Q5325 381 5325 410Q5325 480 5314 529Q5304 578 5286 608Q5268 639 5244 652Q5221 666 5195 666ZM6115 596Q6115 539 6095 479Q6076 419 6037 365Q5999 312 5942 269Q5886 227 5812 205Q5822 179 5838 155Q5855 132 5878 115Q5901 98 5931 88Q5962 78 6002 78Q6062 78 6105 100Q6148 123 6177 160Q6207 197 6225 243Q6243 289 6252 336Q6259 370 6280 381Q6302 393 6324 387Q6347 381 6363 361Q6380 342 6377 315Q6373 284 6363 244Q6354 204 6335 163Q6316 122 6286 82Q6257 43 6214 12Q6171 -19 6113 -38Q6055 -57 5980 -57Q5910 -57 5844 -30Q5779 -2 5728 49Q5678 101 5647 176Q5617 252 5617 348Q5617 445 5644 528Q5671 612 5715 673Q5759 734 5815 768Q5871 803 5930 803Q5973 803 6007 788Q6042 773 6066 745Q6090 718 6102 680Q6115 642 6115 596ZM5785 354Q5785 345 5786 336Q5787 327 5787 317Q5825 335 5856 363Q5887 391 5909 427Q5931 463 5943 505Q5955 548 5955 594Q5955 628 5943 647Q5932 666 5912 666Q5887 666 5867 649Q5848 632 5833 604Q5819 577 5809 542Q5800 508 5794 473Q5788 438 5786 406Q5784 375 5785 354Z" fill="#072a55" style=""></path></g></g></g></svg>