<svg version="1.1" xmlns="http://www.w3.org/2000/svg" viewBox="-220.2 -3641.0249999999996 6408.4 4186.224999999999"><desc>Created with Snap</desc><defs></defs><g><g transform="matrix(40.8887,0,0,40.8887,1675.5603,-3498.4022)"><path d="M50.3,15.3c-0.1,0-0.2,0.1-0.3,0.1v3.8l0.4,0.2c1,0.5,1.6,1.5,1.6,2.7v4.2l7.4-3.7c0.3-0.2,0.6-0.5,0.6-0.9V10.5L50.3,15.3z  " fill="#e94b3c" style=""></path><path d="M49.4,13.5l9.3-4.7l-9.3-4.7c-0.3-0.1-0.6-0.1-0.9,0l-9.3,4.7l9.3,4.7C48.8,13.7,49.2,13.7,49.4,13.5z" fill="#e94b3c" style=""></path><path d="M48,15.5c-0.1,0-0.2-0.1-0.3-0.1L38,10.5v2.4l10,5.3V15.5z" fill="#e94b3c" style=""></path><path d="M32.5,12.3c-0.3-0.2-0.6-0.2-0.9,0l-16.4,8.6l16.4,8.6c0.3,0.2,0.6,0.2,0.9,0l16.4-8.6L32.5,12.3z" fill="#e94b3c" style=""></path><path d="M16,15.5v2.7l10-5.3v-2.4l-9.7,4.8C16.2,15.4,16.1,15.4,16,15.5z" fill="#e94b3c" style=""></path><path d="M15.4,13.5l9.3-4.7l-9.3-4.7c-0.3-0.1-0.6-0.1-0.9,0L5.2,8.9l9.3,4.7C14.8,13.7,15.2,13.7,15.4,13.5z" fill="#e94b3c" style=""></path><path d="M4.6,22.5l7.4,3.7v-4.2c0-1.1,0.6-2.1,1.6-2.7l0.4-0.2v-3.8c-0.1,0-0.2-0.1-0.3-0.1L4,10.5v11.1C4,22,4.2,22.4,4.6,22.5z" fill="#e94b3c" style=""></path><path d="M19,38v2.9h-2V37l-1.6-0.8c-0.1-0.1-0.3-0.1-0.4-0.1c-0.2,0-0.3,0-0.4,0.1l-9.3,4.7l9.8,4.9l9.8-4.9L19,38z" fill="#e94b3c" style=""></path><path d="M4,53.6c0,0.4,0.2,0.7,0.6,0.9h0l9.4,4.7V47.5l-10-5V53.6z" fill="#e94b3c" style=""></path><path d="M16,59.3l9.4-4.7c0.3-0.2,0.6-0.5,0.6-0.9V42.5l-10,5V59.3z" fill="#e94b3c" style=""></path><path d="M14,22.5v11.8c0.8-0.3,1.6-0.2,2.3,0.1l0.7,0.3v-0.9c0-1.1,0.6-2.1,1.6-2.7l3.9-2.1l0.9,1.8l-3.9,2.1  c-0.3,0.2-0.5,0.5-0.5,0.9v1.9l7.3,3.7c1,0.5,1.7,1.5,1.7,2.7v7.5l3,1.6V31.4c-0.1,0-0.3-0.1-0.4-0.2L14,22.5z" fill="#e94b3c" style=""></path><path d="M45,33.8c0-0.4-0.2-0.7-0.5-0.9l-3.9-2.1l0.9-1.8l3.9,2.1c1,0.5,1.6,1.5,1.6,2.7v0.9l0.7-0.3c0.7-0.4,1.6-0.4,2.3-0.1V22.5  l-16.6,8.7c-0.1,0.1-0.3,0.1-0.4,0.2v19.8l3-1.6v-7.5c0-1.1,0.6-2.2,1.7-2.7l7.3-3.7V33.8z" fill="#e94b3c" style=""></path><path d="M49.4,36.2c-0.1-0.1-0.3-0.1-0.4-0.1c-0.2,0-0.3,0-0.4,0.1L47,37v3.9h-2V38l-5.8,2.9l9.8,4.9l9.8-4.9L49.4,36.2z" fill="#e94b3c" style=""></path><path d="M38,53.6c0,0.4,0.2,0.7,0.6,0.9h0l9.4,4.7V47.5l-10-5V53.6z" fill="#e94b3c" style=""></path><path d="M50,59.3l9.4-4.7c0.3-0.2,0.6-0.5,0.6-0.9V42.5l-10,5V59.3z" fill="#e94b3c" style=""></path><desc>Created with Snap</desc><defs></defs></g><g><g transform="matrix(0.5,0,0,-0.5,0,0)"><path d="M1029 0L174 0L174 1479L1022 1479L1015 1326L347 1326L347 842L982 842L982 691L347 691L347 153L1037 153L1029 0ZM1174 0L1576 558L1189 1097L1380 1097L1673 679L1967 1097L2158 1097L1770 556L2168 0L1983 0L1674 441L1365 0L1174 0ZM2510 -465L2343 -476L2343 1097L2490 1097L2506 948Q2650 1120 2852 1120Q3002 1120 3106 1045Q3210 970 3259 842Q3309 714 3309 543Q3309 379 3255 251Q3201 124 3096 50Q2992 -23 2852 -23Q2746 -23 2653 24Q2560 72 2504 150Q2510 42 2510 -60L2510 -465ZM2829 118Q2905 118 2965 152Q3025 187 3062 247Q3099 307 3118 383Q3137 460 3137 549Q3137 737 3058 857Q2979 978 2827 978Q2509 978 2509 567Q2509 344 2583 231Q2658 118 2829 118ZM4036 1107Q4081 1107 4118 1101L4112 947Q4066 955 4032 955Q3892 955 3804 857Q3717 760 3717 616L3717 0L3550 0Q3549 1010 3549 1097L3688 1097L3704 900Q3761 993 3849 1050Q3937 1107 4036 1107ZM4922 894Q4849 982 4721 982Q4593 982 4512 891Q4431 801 4417 644L4996 644Q4996 807 4922 894ZM4754 -23Q4515 -23 4377 129Q4240 281 4240 545Q4240 800 4373 958Q4506 1117 4723 1120Q4927 1120 5046 980Q5166 841 5166 608Q5166 596 5165 564Q5165 532 5165 518L4412 518Q4415 331 4508 226Q4602 122 4760 122Q4934 122 5109 214L5135 79Q4968 -23 4754 -23ZM5725 -23Q5613 -23 5518 1Q5424 25 5365 63L5386 204Q5553 115 5714 115Q5958 115 5965 287Q5965 360 5913 402Q5861 444 5709 496L5626 525Q5482 573 5420 644Q5359 715 5358 821Q5358 950 5461 1035Q5565 1120 5745 1120Q5931 1120 6084 1048L6035 920Q5880 984 5745 984Q5640 984 5580 942Q5521 901 5521 826Q5521 762 5564 728Q5607 694 5736 650Q5769 638 5819 622Q5985 568 6054 494Q6123 421 6123 296Q6121 144 6014 60Q5907 -23 5725 -23ZM6678 -23Q6566 -23 6471 1Q6377 25 6318 63L6339 204Q6506 115 6667 115Q6911 115 6918 287Q6918 360 6866 402Q6814 444 6662 496L6579 525Q6435 573 6373 644Q6312 715 6311 821Q6311 950 6414 1035Q6518 1120 6698 1120Q6884 1120 7037 1048L6988 920Q6833 984 6698 984Q6593 984 6533 942Q6474 901 6474 826Q6474 762 6517 728Q6560 694 6689 650Q6722 638 6772 622Q6938 568 7007 494Q7076 421 7076 296Q7074 144 6967 60Q6860 -23 6678 -23ZM7621 112Q7740 112 7830 177Q7921 243 7947 354L7947 539Q7942 539 7886 534Q7831 529 7814 528Q7597 509 7511 457Q7426 405 7426 290Q7426 202 7478 157Q7530 112 7621 112ZM8114 0L7984 0Q7969 64 7955 138Q7864 47 7784 12Q7704 -23 7596 -23Q7442 -23 7348 57Q7255 138 7255 289Q7255 457 7382 538Q7510 619 7750 639Q7783 642 7849 647Q7916 653 7949 656L7949 753Q7949 869 7895 925Q7841 981 7725 981Q7563 981 7398 901Q7393 913 7372 970Q7351 1028 7350 1030Q7423 1071 7523 1095Q7624 1120 7728 1120Q7933 1120 8023 1030Q8114 941 8114 726L8114 0ZM8571 0L8402 0L8402 1097L8542 1097L8563 940Q8628 1021 8725 1070Q8823 1120 8936 1120Q9126 1120 9217 1013Q9308 907 9308 686L9308 0L9141 0Q9141 660 9140 707Q9136 847 9083 912Q9031 977 8908 977Q8779 977 8693 915Q8607 853 8581 754Q8571 687 8571 600L8571 0ZM10014 121Q10179 121 10259 227Q10340 333 10340 530Q10340 752 10262 864Q10185 977 10012 977Q9935 977 9876 944Q9817 911 9781 852Q9745 793 9726 716Q9708 640 9708 549Q9708 421 9739 327Q9771 233 9841 177Q9911 121 10014 121ZM10365 0L10343 159Q10289 76 10199 27Q10109 -22 9998 -22Q9781 -22 9658 132Q9535 287 9535 553Q9535 807 9660 963Q9785 1120 9995 1120Q10104 1120 10200 1072Q10297 1025 10345 945L10342 1040L10342 1523L10507 1533L10507 0L10365 0ZM10919 546Q10919 351 11005 233Q11092 116 11258 116Q11422 116 11505 233Q11589 350 11589 548Q11589 749 11506 864Q11424 980 11255 980Q11091 980 11005 862Q10919 744 10919 546ZM11762 549Q11762 294 11626 135Q11490 -23 11250 -23Q11019 -23 10882 137Q10746 297 10746 548Q10746 804 10883 962Q11020 1120 11259 1120Q11494 1120 11628 961Q11762 803 11762 549Z" fill="#e94b3c" style=""></path></g></g></g></svg>