<svg version="1.1" xmlns="http://www.w3.org/2000/svg" viewBox="-929.0350349987636 -2007.09821544532 4787.734282796605 3503.2203002387573"><desc>Created with Snap</desc><defs></defs><g><g transform="matrix(10.7312,0,0,10.7312,-681.4085,-2401.7286)">
<g id="gSku78s8s651r">
	<g>
		<g>
			<path d="M387.88501,83.59349V316.4075H12.115V83.59349H387.88501 M391.96945,79.50903H8.03054v240.98294h383.9389V79.50903
				L391.96945,79.50903z" fill="#e8715b" style=""></path>
			<path d="M38.30037,67.71037l353.83911,50.25497l-30.43997,214.32426L7.86052,282.03564L38.30037,67.71037 M36.56565,65.4009
				L5.55142,283.77075l357.88281,50.82834l31.01434-218.36884L36.56565,65.4009L36.56565,65.4009z" fill="#e8715b" style=""></path>
			<path d="M361.69949,67.71037l30.43997,214.32527L38.30037,332.28961L7.86052,117.96535L361.69949,67.71037 M363.43423,65.4009
				L5.55142,116.23025l31.01422,218.36884l357.88293-50.82834L363.43423,65.4009L363.43423,65.4009z" fill="#e8715b" style=""></path>
		</g>
		<rect x="47.64159" y="114.85448" width="304.71683" height="170.29103" fill="#e8715b" style=""></rect>
	</g>
</g>


<desc>Created with Snap</desc><defs></defs></g><g><g transform="matrix(1.024,0,0,-1.024,0,0)"><path d="M564 233L564 52Q471 -12 333 -12Q195 -12 117 74Q40 161 40 331Q40 406 59 466Q79 526 110 565Q142 604 184 630Q264 677 365 677Q467 677 555 636L555 466L453 459L453 537Q453 552 449 559Q438 578 358 578Q165 578 165 339Q165 87 339 87Q408 87 445 111L445 260L444 260L367 263L367 348L616 348L616 268L593 266Q577 264 570 257Q564 251 564 233ZM674 713L853 713L853 83L910 80L910 0L672 0L672 76L705 79Q734 82 734 111L734 604Q734 626 709 628L674 630L674 713ZM1467 82L1502 79L1502 0L1340 0L1340 65Q1285 -13 1178 -13Q1023 -13 1023 160L1023 391Q1023 418 998 419L966 421L966 503L1142 503L1142 186Q1142 133 1157 106Q1172 79 1219 79Q1266 79 1294 108Q1323 137 1323 178L1323 389Q1323 405 1317 411Q1312 418 1298 419L1266 421L1266 503L1442 503L1442 111Q1442 95 1447 89Q1452 84 1467 82ZM2008 1Q1999 -110 1944 -162Q1889 -214 1772 -214Q1655 -214 1589 -181L1589 -42L1684 -34L1684 -82Q1684 -109 1709 -119Q1734 -128 1778 -128Q1842 -128 1868 -90Q1894 -51 1894 19L1894 74Q1846 18 1761 18Q1709 18 1669 38Q1630 58 1608 92Q1565 160 1565 252Q1565 383 1636 450Q1707 518 1825 518Q1923 518 2010 481L2010 110Q2010 25 2008 1ZM1894 204L1894 419Q1859 431 1814 431Q1753 431 1720 386Q1688 341 1688 264Q1688 106 1792 106Q1835 106 1864 132Q1894 159 1894 204ZM2107 713L2286 713L2286 83L2343 80L2343 0L2105 0L2105 76L2138 79Q2167 82 2167 111L2167 604Q2167 626 2142 628L2107 630L2107 713ZM2656 518Q2731 518 2775 481Q2819 445 2819 379Q2819 335 2800 301Q2781 268 2753 249Q2725 230 2685 218Q2618 198 2534 198Q2537 145 2567 112Q2597 80 2659 80Q2721 80 2783 124L2821 43Q2801 25 2753 6Q2706 -13 2645 -13Q2523 -13 2466 54Q2409 122 2409 240Q2409 358 2474 438Q2539 518 2656 518ZM2610 289Q2647 296 2678 318Q2709 341 2709 372Q2709 433 2649 433Q2593 433 2563 388Q2533 344 2530 282Q2574 283 2610 289Z" fill="#072a55" style=""></path></g></g></g></svg>