<svg width="58" height="45" viewBox="0 0 58 45" fill="none" xmlns="http://www.w3.org/2000/svg">
<path d="M12.0833 24.2794H40.745L31.9725 32.4223C31.7693 32.6112 31.6164 32.8291 31.5222 33.0636C31.4281 33.2982 31.3947 33.5447 31.4238 33.7893C31.4827 34.2831 31.7931 34.7387 32.2866 35.0557C32.7801 35.3727 33.4164 35.5252 34.0554 35.4797C34.6945 35.4341 35.2839 35.1943 35.6941 34.8129L47.7775 23.607C47.8588 23.5179 47.9314 23.4243 47.995 23.3269C47.995 23.2335 48.1158 23.1775 48.1641 23.0841C48.2737 22.8699 48.331 22.642 48.3333 22.4117C48.331 22.1815 48.2737 21.9535 48.1641 21.7394C48.1641 21.646 48.0433 21.59 47.995 21.4966C47.9314 21.3992 47.8588 21.3056 47.7775 21.2164L35.6941 10.0106C35.4669 9.79976 35.1824 9.63021 34.8607 9.51401C34.5391 9.3978 34.1883 9.33778 33.8333 9.33823C33.2686 9.33738 32.7214 9.48936 32.2866 9.76779C32.0419 9.92457 31.8396 10.1171 31.6914 10.3344C31.5431 10.5517 31.4518 10.7895 31.4226 11.0341C31.3934 11.2787 31.4269 11.5254 31.5213 11.76C31.6157 11.9946 31.769 12.2124 31.9725 12.4012L40.745 20.5441H12.0833C11.4424 20.5441 10.8277 20.7409 10.3745 21.0911C9.92124 21.4414 9.66663 21.9164 9.66663 22.4117C9.66663 22.9071 9.92124 23.3821 10.3745 23.7324C10.8277 24.0826 11.4424 24.2794 12.0833 24.2794Z" fill="white"/>
</svg>
