<svg width="94" height="94" viewBox="0 0 94 94" fill="none" xmlns="http://www.w3.org/2000/svg">
<path d="M81.4627 27.1543C81.4994 26.884 81.4994 26.61 81.4627 26.3397C81.4289 26.1119 81.3637 25.89 81.2687 25.6802C81.1662 25.4907 81.0495 25.3091 80.9196 25.1372C80.772 24.8918 80.589 24.6696 80.3765 24.4777L79.911 24.2061C79.6871 24.0392 79.4384 23.9083 79.174 23.8182H78.3981C78.1617 23.5893 77.8857 23.4053 77.5835 23.2751H58.1876C57.1588 23.2751 56.1721 23.6838 55.4446 24.4113C54.7171 25.1388 54.3084 26.1255 54.3084 27.1543C54.3084 28.1831 54.7171 29.1698 55.4446 29.8973C56.1721 30.6248 57.1588 31.0335 58.1876 31.0335H69.1657L53.649 49.3044L36.8909 39.335C36.0972 38.8629 35.161 38.6894 34.2508 38.8459C33.3406 39.0023 32.5161 39.4783 31.9256 40.1884L12.5297 63.4635C12.203 63.8554 11.9569 64.308 11.8055 64.7953C11.654 65.2825 11.6002 65.7948 11.647 66.3029C11.6938 66.811 11.8405 67.3048 12.0785 67.7562C12.3165 68.2075 12.6411 68.6075 13.0339 68.9331C13.7319 69.5114 14.6102 69.8271 15.5166 69.8253C16.0865 69.8262 16.6496 69.7016 17.1659 69.4602C17.6821 69.2189 18.1389 68.8667 18.5036 68.4288L35.7659 47.714L52.33 57.6447C53.1157 58.1107 54.0406 58.2845 54.9418 58.1355C55.8431 57.9864 56.6628 57.5242 57.2566 56.8301L73.7043 37.6281V46.5502C73.7043 47.5791 74.113 48.5657 74.8405 49.2932C75.568 50.0207 76.5547 50.4294 77.5835 50.4294C78.6123 50.4294 79.599 50.0207 80.3265 49.2932C81.054 48.5657 81.4627 47.5791 81.4627 46.5502V27.1543Z" fill="white"/>
</svg>
