<svg width="94" height="94" viewBox="0 0 94 94" fill="none" xmlns="http://www.w3.org/2000/svg">
<path d="M77.5836 45.8906C76.5548 45.8906 75.5681 46.2993 74.8406 47.0268C74.1132 47.7543 73.7045 48.741 73.7045 49.7698V71.3768C73.7045 71.9941 73.4592 72.5861 73.0228 73.0226C72.5863 73.4591 71.9942 73.7043 71.377 73.7043H21.7234C21.1061 73.7043 20.5141 73.4591 20.0776 73.0226C19.6412 72.5861 19.3959 71.9941 19.3959 71.3768V21.7233C19.3959 21.106 19.6412 20.514 20.0776 20.0775C20.5141 19.641 21.1061 19.3958 21.7234 19.3958H58.8472C59.876 19.3958 60.8627 18.9871 61.5902 18.2596C62.3177 17.5321 62.7264 16.5455 62.7264 15.5166C62.7264 14.4878 62.3177 13.5011 61.5902 12.7736C60.8627 12.0461 59.876 11.6375 58.8472 11.6375H21.7234C19.0516 11.6477 16.4922 12.7136 14.6029 14.6028C12.7137 16.4921 11.6478 19.0515 11.6376 21.7233V71.3768C11.6478 74.0486 12.7137 76.6081 14.6029 78.4973C16.4922 80.3866 19.0516 81.4525 21.7234 81.4627H71.377C74.0487 81.4525 76.6082 80.3866 78.4974 78.4973C80.3867 76.6081 81.4526 74.0486 81.4628 71.3768V49.7698C81.4628 48.741 81.0541 47.7543 80.3266 47.0268C79.5992 46.2993 78.6125 45.8906 77.5836 45.8906V45.8906Z" fill="white"/>
<path d="M41.5848 42.671C40.8569 42.0163 39.9083 41.6611 38.9294 41.6767C37.9505 41.6922 37.0137 42.0772 36.3069 42.7546C35.6 43.432 35.1754 44.3516 35.1183 45.329C35.0612 46.3063 35.3757 47.2691 35.9988 48.0243L44.6106 57.0628C44.9712 57.441 45.4044 57.7425 45.8844 57.9491C46.3643 58.1558 46.8811 58.2633 47.4036 58.2653C47.9234 58.2683 48.4385 58.1669 48.9183 57.967C49.3981 57.7671 49.8328 57.4728 50.1966 57.1016L76.4975 29.9473C76.8541 29.5805 77.1349 29.1471 77.324 28.6718C77.5131 28.1964 77.6067 27.6885 77.5995 27.177C77.5923 26.6655 77.4844 26.1604 77.282 25.6906C77.0796 25.2208 76.7867 24.7955 76.4199 24.4389C76.0531 24.0823 75.6197 23.8014 75.1443 23.6123C74.669 23.4232 74.1611 23.3296 73.6496 23.3368C73.1381 23.344 72.633 23.4519 72.1632 23.6543C71.6934 23.8567 71.268 24.1497 70.9114 24.5164L47.4424 48.8001L41.5848 42.671Z" fill="white"/>
</svg>
