<svg width="94" height="94" viewBox="0 0 94 94" fill="none" xmlns="http://www.w3.org/2000/svg">
<path d="M68.1184 81.4626C67.498 81.4651 66.8861 81.3187 66.334 81.0358L46.5501 70.6784L26.7663 81.0358C26.1239 81.3737 25.3996 81.5245 24.6757 81.4711C23.9519 81.4178 23.2575 81.1624 22.6716 80.734C22.0856 80.3057 21.6316 79.7215 21.3611 79.048C21.0906 78.3745 21.0145 77.6386 21.1415 76.9239L25.0207 55.0841L9.03846 39.5674C8.53982 39.0698 8.18609 38.4458 8.01524 37.7624C7.84438 37.079 7.86285 36.3619 8.06866 35.6882C8.2935 34.9988 8.70708 34.3862 9.26248 33.9199C9.81788 33.4537 10.4928 33.1524 11.2108 33.0504L33.3221 29.8307L43.0589 9.93047C43.3765 9.27462 43.8725 8.7215 44.4899 8.33448C45.1074 7.94746 45.8214 7.74219 46.5501 7.74219C47.2789 7.74219 47.9929 7.94746 48.6103 8.33448C49.2278 8.7215 49.7237 9.27462 50.0414 9.93047L59.8945 29.7919L82.0058 33.0116C82.7238 33.1136 83.3988 33.4149 83.9542 33.8811C84.5096 34.3474 84.9232 34.96 85.148 35.6494C85.3538 36.3232 85.3723 37.0402 85.2014 37.7236C85.0306 38.407 84.6768 39.031 84.1782 39.5286L68.196 55.0453L72.0751 76.8851C72.2136 77.6124 72.1411 78.3641 71.8662 79.0515C71.5912 79.7388 71.1253 80.3332 70.5235 80.7643C69.821 81.2566 68.9752 81.5021 68.1184 81.4626V81.4626ZM46.5501 62.4546C47.172 62.4389 47.7871 62.586 48.3346 62.8813L62.9591 70.6396L60.1661 54.3083C60.0577 53.6847 60.1036 53.0441 60.2996 52.4423C60.4957 51.8405 60.8361 51.2959 61.291 50.8558L72.9286 39.4898L56.636 37.0847C56.0385 36.9645 55.4778 36.7051 54.9993 36.3277C54.5208 35.9502 54.138 35.4654 53.8818 34.9124L46.5501 20.3655L39.2185 34.9124C38.9378 35.4698 38.5268 35.9514 38.0203 36.316C37.5138 36.6807 36.9268 36.9178 36.3091 37.0072L20.0165 39.4122L31.6541 50.7782C32.109 51.2183 32.4494 51.7629 32.6455 52.3647C32.8415 52.9665 32.8874 53.6071 32.779 54.2307L29.986 70.3681L44.6105 62.6097C45.2302 62.3794 45.9017 62.3257 46.5501 62.4546V62.4546Z" fill="white"/>
</svg>
