<svg width="94" height="94" viewBox="0 0 94 94" fill="none" xmlns="http://www.w3.org/2000/svg">
<path d="M73.7046 77.5837H19.396C18.3672 77.5837 17.3805 77.9924 16.653 78.7199C15.9255 79.4474 15.5168 80.4341 15.5168 81.4629C15.5168 82.4917 15.9255 83.4784 16.653 84.2059C17.3805 84.9334 18.3672 85.3421 19.396 85.3421H73.7046C74.7334 85.3421 75.7201 84.9334 76.4475 84.2059C77.175 83.4784 77.5837 82.4917 77.5837 81.4629C77.5837 80.4341 77.175 79.4474 76.4475 78.7199C75.7201 77.9924 74.7334 77.5837 73.7046 77.5837Z" fill="white"/>
<path d="M19.396 69.8253H19.7451L35.9213 68.3512C37.6933 68.1746 39.3506 67.3939 40.6151 66.14L75.5277 31.2274C76.8828 29.7959 77.6151 27.8855 77.5642 25.915C77.5133 23.9445 76.6833 22.0745 75.2562 20.7148L64.6272 10.0859C63.24 8.78284 61.4222 8.03518 59.5196 7.98511C57.617 7.93504 55.7624 8.58606 54.3086 9.81433L19.396 44.727C18.1421 45.9914 17.3614 47.6488 17.1848 49.4208L15.5168 65.5969C15.4645 66.1651 15.5383 66.7378 15.7327 67.2742C15.9272 67.8107 16.2376 68.2976 16.6418 68.7003C17.0042 69.0598 17.4341 69.3443 17.9067 69.5373C18.3794 69.7304 18.8854 69.8282 19.396 69.8253V69.8253ZM59.2352 15.5167L69.8253 26.1069L62.067 33.6713L51.6708 23.2751L59.2352 15.5167ZM24.7104 50.0802L46.5502 28.3956L57.024 38.8694L35.3006 60.5928L23.6631 61.679L24.7104 50.0802Z" fill="white"/>
</svg>
