<svg width="94" height="94" viewBox="0 0 94 94" fill="none" xmlns="http://www.w3.org/2000/svg">
<path d="M34.9127 42.6709C37.9816 42.6709 40.9816 41.7609 43.5333 40.0559C46.0851 38.3509 48.0739 35.9275 49.2483 33.0922C50.4227 30.2569 50.73 27.137 50.1313 24.127C49.5326 21.1171 48.0548 18.3523 45.8847 16.1822C43.7146 14.0121 40.9498 12.5343 37.9399 11.9356C34.9299 11.3369 31.81 11.6442 28.9747 12.8186C26.1394 13.993 23.716 15.9818 22.011 18.5336C20.306 21.0853 19.396 24.0853 19.396 27.1542C19.396 31.2695 21.0308 35.2162 23.9407 38.1262C26.8507 41.0361 30.7974 42.6709 34.9127 42.6709ZM34.9127 19.3958C36.4472 19.3958 37.9472 19.8508 39.223 20.7033C40.4989 21.5558 41.4933 22.7675 42.0805 24.1852C42.6677 25.6028 42.8214 27.1628 42.522 28.6678C42.2226 30.1727 41.4837 31.5551 40.3987 32.6402C39.3137 33.7252 37.9313 34.4641 36.4263 34.7635C34.9213 35.0628 33.3614 34.9092 31.9437 34.322C30.5261 33.7348 29.3144 32.7403 28.4619 31.4645C27.6094 30.1886 27.1544 28.6886 27.1544 27.1542C27.1544 25.0965 27.9718 23.1232 29.4267 21.6682C30.8817 20.2132 32.8551 19.3958 34.9127 19.3958Z" fill="white"/>
<path d="M65.9461 50.4293C68.2478 50.4293 70.4978 49.7467 72.4116 48.468C74.3254 47.1892 75.817 45.3717 76.6978 43.2452C77.5786 41.1187 77.8091 38.7788 77.3601 36.5213C76.911 34.2639 75.8027 32.1903 74.1751 30.5627C72.5476 28.9352 70.474 27.8268 68.2165 27.3778C65.959 26.9288 63.6191 27.1592 61.4926 28.04C59.3662 28.9209 57.5486 30.4125 56.2699 32.3262C54.9911 34.24 54.3086 36.49 54.3086 38.7917C54.3086 41.8782 55.5347 44.8382 57.7171 47.0207C59.8996 49.2032 62.8597 50.4293 65.9461 50.4293ZM65.9461 34.9125C66.7134 34.9125 67.4634 35.1401 68.1013 35.5663C68.7392 35.9926 69.2364 36.5984 69.53 37.3072C69.8236 38.016 69.9005 38.796 69.7508 39.5485C69.6011 40.301 69.2316 40.9922 68.6891 41.5347C68.1466 42.0772 67.4554 42.4467 66.7029 42.5964C65.9504 42.746 65.1705 42.6692 64.4616 42.3756C63.7528 42.082 63.147 41.5848 62.7207 40.9469C62.2945 40.309 62.067 39.559 62.067 38.7917C62.067 37.7629 62.4757 36.7762 63.2031 36.0487C63.9306 35.3212 64.9173 34.9125 65.9461 34.9125Z" fill="white"/>
<path d="M65.9461 54.3086C61.6473 54.3134 57.4719 55.7462 54.0758 58.3818C50.2762 54.5971 45.441 52.0222 40.1799 50.982C34.9189 49.9417 29.4676 50.4826 24.5135 52.5364C19.5594 54.5902 15.3244 58.065 12.3426 62.5226C9.36079 66.9801 7.76568 72.2208 7.75842 77.5837C7.75842 78.6126 8.16712 79.5992 8.89461 80.3267C9.6221 81.0542 10.6088 81.4629 11.6376 81.4629C12.6664 81.4629 13.6531 81.0542 14.3806 80.3267C15.1081 79.5992 15.5168 78.6126 15.5168 77.5837C15.5168 72.4396 17.5603 67.5062 21.1977 63.8688C24.8351 60.2313 29.7686 58.1878 34.9127 58.1878C40.0568 58.1878 44.9902 60.2313 48.6277 63.8688C52.2651 67.5062 54.3086 72.4396 54.3086 77.5837C54.3086 78.6126 54.7173 79.5992 55.4448 80.3267C56.1723 81.0542 57.1589 81.4629 58.1878 81.4629C59.2166 81.4629 60.2033 81.0542 60.9308 80.3267C61.6582 79.5992 62.0669 78.6126 62.0669 77.5837C62.0762 73.039 60.9281 68.5668 58.7309 64.5885C60.4452 63.2338 62.5062 62.3891 64.6781 62.1511C66.8501 61.913 69.0451 62.2912 71.0122 63.2423C72.9792 64.1934 74.6388 65.6791 75.8009 67.5294C76.9631 69.3796 77.5809 71.5196 77.5837 73.7045C77.5837 74.7334 77.9924 75.7201 78.7199 76.4475C79.4473 77.175 80.434 77.5837 81.4629 77.5837C82.4917 77.5837 83.4784 77.175 84.2058 76.4475C84.9333 75.7201 85.342 74.7334 85.342 73.7045C85.342 68.5604 83.2985 63.627 79.6611 59.9896C76.0237 56.3521 71.0902 54.3086 65.9461 54.3086Z" fill="white"/>
</svg>
