<svg width="94" height="94" viewBox="0 0 94 94" fill="none" xmlns="http://www.w3.org/2000/svg">
<path d="M46.5501 7.7583C38.8778 7.7583 31.3778 10.0334 24.9986 14.2959C18.6193 18.5584 13.6472 24.6168 10.7112 31.7051C7.77511 38.7934 7.0069 46.5931 8.50369 54.118C10.0005 61.6429 13.695 68.5549 19.1202 73.9801C24.5453 79.4052 31.4573 83.0998 38.9822 84.5965C46.5071 86.0933 54.3068 85.3251 61.3951 82.3891C68.4834 79.453 74.5418 74.481 78.8043 68.1017C83.0668 61.7224 85.3419 54.2224 85.3419 46.5501C85.3419 41.4559 84.3385 36.4116 82.3891 31.7051C80.4396 26.9987 77.5822 22.7223 73.9801 19.1202C70.3779 15.518 66.1015 12.6606 61.3951 10.7112C56.6887 8.76168 51.6443 7.7583 46.5501 7.7583V7.7583ZM46.5501 77.5836C40.4123 77.5836 34.4123 75.7635 29.3089 72.3535C24.2054 68.9435 20.2278 64.0967 17.879 58.4261C15.5301 52.7555 14.9155 46.5157 16.113 40.4958C17.3104 34.4759 20.2661 28.9463 24.6062 24.6061C28.9463 20.266 34.4759 17.3104 40.4958 16.113C46.5157 14.9155 52.7555 15.5301 58.4261 17.8789C64.0967 20.2278 68.9435 24.2054 72.3535 29.3088C75.7635 34.4123 77.5836 40.4123 77.5836 46.5501C77.5836 54.7807 74.314 62.6742 68.4941 68.4941C62.6742 74.314 54.7807 77.5836 46.5501 77.5836V77.5836Z" fill="white"/>
<path d="M46.5502 23.2749C42.9493 23.2749 39.4959 24.7054 36.9497 27.2516C34.4035 29.7978 32.973 33.2512 32.973 36.8521C32.973 37.8809 33.3817 38.8676 34.1092 39.595C34.8367 40.3225 35.8234 40.7312 36.8522 40.7312C37.881 40.7312 38.8677 40.3225 39.5952 39.595C40.3227 38.8676 40.7314 37.8809 40.7314 36.8521C40.7314 35.7012 41.0726 34.5762 41.712 33.6193C42.3514 32.6624 43.2602 31.9166 44.3234 31.4762C45.3866 31.0358 46.5566 30.9206 47.6853 31.1451C48.8141 31.3696 49.8509 31.9238 50.6646 32.7376C51.4784 33.5513 52.0326 34.5881 52.2571 35.7169C52.4816 36.8456 52.3664 38.0156 51.926 39.0788C51.4856 40.142 50.7398 41.0508 49.7829 41.6902C48.826 42.3296 47.701 42.6708 46.5502 42.6708C45.5213 42.6708 44.5346 43.0795 43.8072 43.807C43.0797 44.5345 42.671 45.5212 42.671 46.55V54.3084C42.671 55.3372 43.0797 56.3239 43.8072 57.0514C44.5346 57.7788 45.5213 58.1875 46.5502 58.1875C47.579 58.1875 48.5657 57.7788 49.2931 57.0514C50.0206 56.3239 50.4293 55.3372 50.4293 54.3084V49.8085C53.5641 48.893 56.2623 46.8753 58.0267 44.1272C59.791 41.3791 60.5025 38.0859 60.0301 34.8545C59.5577 31.6232 57.9332 28.6715 55.4559 26.5435C52.9787 24.4155 49.8158 23.2547 46.5502 23.2749V23.2749Z" fill="white"/>
<path d="M46.5501 69.8253C48.6925 69.8253 50.4293 68.0885 50.4293 65.9461C50.4293 63.8037 48.6925 62.0669 46.5501 62.0669C44.4077 62.0669 42.6709 63.8037 42.6709 65.9461C42.6709 68.0885 44.4077 69.8253 46.5501 69.8253Z" fill="white"/>
</svg>
