<svg width="125" height="126" viewBox="0 0 125 126" fill="none" xmlns="http://www.w3.org/2000/svg">
<path d="M82.8923 75.7944C82.2105 75.7984 81.5346 75.6677 80.9035 75.4099C80.2723 75.1521 79.6982 74.7722 79.2141 74.2921L62.1702 57.1446L45.0746 73.6186C44.1039 74.5835 42.7909 75.1251 41.4223 75.1251C40.0537 75.1251 38.7407 74.5835 37.7701 73.6186C37.2845 73.137 36.8991 72.5641 36.6361 71.9328C36.3731 71.3015 36.2377 70.6244 36.2377 69.9405C36.2377 69.2566 36.3731 68.5795 36.6361 67.9482C36.8991 67.3169 37.2845 66.7439 37.7701 66.2623L58.4921 46.2656C59.4605 45.3163 60.7624 44.7847 62.1184 44.7847C63.4745 44.7847 64.7764 45.3163 65.7448 46.2656L86.4668 66.9876C86.9524 67.4692 87.3378 68.0422 87.6008 68.6734C87.8638 69.3047 87.9992 69.9819 87.9992 70.6657C87.9992 71.3496 87.8638 72.0268 87.6008 72.6581C87.3378 73.2893 86.9524 73.8623 86.4668 74.3439C85.5065 75.2696 84.2261 75.7891 82.8923 75.7944V75.7944Z" fill="white"/>
</svg>
